<svg xmlns="http://www.w3.org/2000/svg" viewBox="0 0 1600 900" role="img" aria-label="After placeholder">
  <defs>
    <linearGradient id="g" x1="0" y1="0" x2="1" y2="1">
      <stop offset="0" stop-color="#1e293b"/>
      <stop offset="1" stop-color="#0f172a"/>
    </linearGradient>
  </defs>
  <rect width="1600" height="900" fill="url(#g)"/>
  <rect x="1" y="1" width="1598" height="898" fill="none" stroke="#334155" stroke-width="2"/>
  <rect x="200" y="160" width="1200" height="460" rx="8" fill="#1e293b"/><rect x="200" y="160" width="1200" height="460" rx="16" fill="none" stroke="#34d399" stroke-width="3"/>
  <rect x="260" y="220" width="380" height="26" rx="8" fill="#34d399"/>
  <rect x="260" y="280" width="560" height="20" rx="8" fill="#475569"/>
  <rect x="260" y="324" width="460" height="20" rx="8" fill="#475569"/>
  <rect x="700" y="280" width="640" height="300" rx="8" fill="#0f172a"/><rect x="700" y="280" width="640" height="300" rx="12" fill="none" stroke="#334155" stroke-width="2"/>
  <rect x="730" y="320" width="300" height="18" rx="8" fill="#60a5fa"/>
  <rect x="730" y="356" width="560" height="16" rx="8" fill="#475569"/>
  <rect x="730" y="392" width="520" height="16" rx="8" fill="#475569"/>
  <rect x="64" y="740" width="14" height="96" rx="4" fill="#34d399"/>
  <text x="96" y="784" font-family="ui-sans-serif, system-ui, sans-serif" font-size="44" font-weight="700" fill="#e2e8f0">After</text>
  <text x="96" y="826" font-family="ui-sans-serif, system-ui, sans-serif" font-size="26" fill="#94a3b8">Generic placeholder — replace with your own image</text>
</svg>