<svg xmlns="http://www.w3.org/2000/svg" viewBox="0 0 1600 900" role="img" aria-label="Analytics placeholder">
  <defs>
    <linearGradient id="g" x1="0" y1="0" x2="1" y2="1">
      <stop offset="0" stop-color="#1e293b"/>
      <stop offset="1" stop-color="#0f172a"/>
    </linearGradient>
  </defs>
  <rect width="1600" height="900" fill="url(#g)"/>
  <rect x="1" y="1" width="1598" height="898" fill="none" stroke="#334155" stroke-width="2"/>
  <rect x="24" y="520" width="80" height="140" rx="8" fill="#34d399"/>
  <rect x="171.2" y="400" width="80" height="260" rx="8" fill="#60a5fa"/>
  <rect x="318.4" y="450" width="80" height="210" rx="8" fill="#34d399"/>
  <rect x="465.59999999999997" y="470" width="80" height="190" rx="8" fill="#60a5fa"/>
  <rect x="612.8" y="320" width="80" height="340" rx="8" fill="#34d399"/>
  <rect x="760" y="540" width="80" height="120" rx="8" fill="#60a5fa"/>
  <rect x="907.1999999999999" y="360" width="80" height="300" rx="8" fill="#34d399"/>
  <rect x="1054.3999999999999" y="400" width="80" height="260" rx="8" fill="#60a5fa"/>
  <rect x="1201.6" y="480" width="80" height="180" rx="8" fill="#34d399"/>
  <rect x="1348.8" y="420" width="80" height="240" rx="8" fill="#60a5fa"/>
  <rect x="1496" y="340" width="80" height="320" rx="8" fill="#34d399"/>
  <line x1="64" y1="660" x2="1536" y2="660" stroke="#334155" stroke-width="3"/>
  <rect x="64" y="740" width="14" height="96" rx="4" fill="#60a5fa"/>
  <text x="96" y="784" font-family="ui-sans-serif, system-ui, sans-serif" font-size="44" font-weight="700" fill="#e2e8f0">Analytics</text>
  <text x="96" y="826" font-family="ui-sans-serif, system-ui, sans-serif" font-size="26" fill="#94a3b8">Generic placeholder — replace with your own image</text>
</svg>