<svg xmlns="http://www.w3.org/2000/svg" viewBox="0 0 1600 900" role="img" aria-label="Dark mode placeholder">
  <defs>
    <linearGradient id="g" x1="0" y1="0" x2="1" y2="1">
      <stop offset="0" stop-color="#1e293b"/>
      <stop offset="1" stop-color="#0f172a"/>
    </linearGradient>
  </defs>
  <rect width="1600" height="900" fill="url(#g)"/>
  <rect x="1" y="1" width="1598" height="898" fill="none" stroke="#334155" stroke-width="2"/>
  <rect x="64" y="64" width="1472" height="60" rx="8" fill="#1e293b"/><rect x="64" y="64" width="1472" height="60" rx="12" fill="none" stroke="#334155" stroke-width="2"/>
  <rect x="104" y="82" width="220" height="24" rx="8" fill="#475569"/>
  <rect x="64" y="160" width="700" height="360" rx="8" fill="#1e293b"/><rect x="64" y="160" width="700" height="360" rx="16" fill="none" stroke="#334155" stroke-width="2"/>
  <rect x="796" y="160" width="740" height="360" rx="8" fill="#1e293b"/><rect x="796" y="160" width="740" height="360" rx="16" fill="none" stroke="#334155" stroke-width="2"/>
  <rect x="104" y="200" width="240" height="24" rx="8" fill="#818cf8"/>
  <rect x="104" y="248" width="560" height="18" rx="8" fill="#475569"/>
  <rect x="104" y="288" width="500" height="18" rx="8" fill="#475569"/>
  <rect x="64" y="740" width="14" height="96" rx="4" fill="#818cf8"/>
  <text x="96" y="784" font-family="ui-sans-serif, system-ui, sans-serif" font-size="44" font-weight="700" fill="#e2e8f0">Dark mode</text>
  <text x="96" y="826" font-family="ui-sans-serif, system-ui, sans-serif" font-size="26" fill="#94a3b8">Generic placeholder — replace with your own image</text>
</svg>