<svg xmlns="http://www.w3.org/2000/svg" viewBox="0 0 1600 900" role="img" aria-label="Dashboard placeholder">
  <defs>
    <linearGradient id="g" x1="0" y1="0" x2="1" y2="1">
      <stop offset="0" stop-color="#1e293b"/>
      <stop offset="1" stop-color="#0f172a"/>
    </linearGradient>
  </defs>
  <rect width="1600" height="900" fill="url(#g)"/>
  <rect x="1" y="1" width="1598" height="898" fill="none" stroke="#334155" stroke-width="2"/>
  <rect x="64" y="64" width="300" height="40" rx="8" fill="#475569"/>
  <rect x="64" y="140" width="460" height="260" rx="8" fill="#1e293b"/><rect x="64" y="140" width="460" height="260" rx="16" fill="none" stroke="#334155" stroke-width="2"/>
  <rect x="556" y="140" width="460" height="260" rx="8" fill="#1e293b"/><rect x="556" y="140" width="460" height="260" rx="16" fill="none" stroke="#334155" stroke-width="2"/>
  <rect x="1048" y="140" width="488" height="260" rx="8" fill="#1e293b"/><rect x="1048" y="140" width="488" height="260" rx="16" fill="none" stroke="#334155" stroke-width="2"/>
  <rect x="104" y="200" width="180" height="28" rx="8" fill="#34d399"/>
  <rect x="104" y="250" width="300" height="20" rx="8" fill="#475569"/>
  <rect x="104" y="290" width="240" height="20" rx="8" fill="#475569"/>
  <rect x="596" y="200" width="180" height="28" rx="8" fill="#60a5fa"/>
  <rect x="596" y="250" width="300" height="20" rx="8" fill="#475569"/>
  <rect x="1088" y="200" width="180" height="28" rx="8" fill="#f472b6"/>
  <rect x="1088" y="250" width="300" height="20" rx="8" fill="#475569"/>
  <rect x="64" y="740" width="14" height="96" rx="4" fill="#34d399"/>
  <text x="96" y="784" font-family="ui-sans-serif, system-ui, sans-serif" font-size="44" font-weight="700" fill="#e2e8f0">Dashboard</text>
  <text x="96" y="826" font-family="ui-sans-serif, system-ui, sans-serif" font-size="26" fill="#94a3b8">Generic placeholder — replace with your own image</text>
</svg>