<svg xmlns="http://www.w3.org/2000/svg" viewBox="0 0 1600 900" role="img" aria-label="Explorer placeholder">
  <defs>
    <linearGradient id="g" x1="0" y1="0" x2="1" y2="1">
      <stop offset="0" stop-color="#1e293b"/>
      <stop offset="1" stop-color="#0f172a"/>
    </linearGradient>
  </defs>
  <rect width="1600" height="900" fill="url(#g)"/>
  <rect x="1" y="1" width="1598" height="898" fill="none" stroke="#334155" stroke-width="2"/>
  <rect x="64" y="64" width="1472" height="60" rx="8" fill="#1e293b"/><rect x="64" y="64" width="1472" height="60" rx="12" fill="none" stroke="#334155" stroke-width="2"/>
  <circle cx="104" cy="94" r="10" fill="#f87171"/><circle cx="140" cy="94" r="10" fill="#fbbf24"/><circle cx="176" cy="94" r="10" fill="#34d399"/>
  <rect x="240" y="82" width="900" height="24" rx="8" fill="#475569"/>
  <rect x="64" y="160" width="360" height="500" rx="8" fill="#1e293b"/><rect x="64" y="160" width="360" height="500" rx="16" fill="none" stroke="#334155" stroke-width="2"/>
  <rect x="456" y="160" width="1080" height="500" rx="8" fill="#1e293b"/><rect x="456" y="160" width="1080" height="500" rx="16" fill="none" stroke="#334155" stroke-width="2"/>
  <rect x="104" y="200" width="280" height="20" rx="8" fill="#fbbf24"/>
  <rect x="104" y="244" width="240" height="18" rx="8" fill="#475569"/>
  <rect x="104" y="284" width="260" height="18" rx="8" fill="#475569"/>
  <rect x="104" y="324" width="200" height="18" rx="8" fill="#475569"/>
  <rect x="496" y="200" width="400" height="22" rx="8" fill="#34d399"/>
  <rect x="496" y="250" width="1000" height="18" rx="8" fill="#475569"/>
  <rect x="496" y="292" width="940" height="18" rx="8" fill="#475569"/>
  <rect x="496" y="334" width="980" height="18" rx="8" fill="#475569"/>
  <rect x="496" y="376" width="700" height="18" rx="8" fill="#475569"/>
  <rect x="64" y="740" width="14" height="96" rx="4" fill="#fbbf24"/>
  <text x="96" y="784" font-family="ui-sans-serif, system-ui, sans-serif" font-size="44" font-weight="700" fill="#e2e8f0">Explorer</text>
  <text x="96" y="826" font-family="ui-sans-serif, system-ui, sans-serif" font-size="26" fill="#94a3b8">Generic placeholder — replace with your own image</text>
</svg>